<?xml version="1.0" standalone="no"?>
<!DOCTYPE svg PUBLIC "-//W3C//DTD SVG 20010904//EN"
 "http://www.w3.org/TR/2001/REC-SVG-20010904/DTD/svg10.dtd">
<svg version="1.0" xmlns="http://www.w3.org/2000/svg"
 width="1000.000000pt" height="1000.000000pt" viewBox="0 0 1000.000000 1000.000000"
 preserveAspectRatio="xMidYMid meet">
<metadata>
Created by potrace 1.14, written by Peter Selinger 2001-2017
</metadata>
<g transform="translate(0.000000,1000.000000) scale(0.100000,-0.100000)"
fill="#000000" stroke="none">
<path d="M0 5000 l0 -5000 5000 0 5000 0 0 5000 0 5000 -1995 0 -1995 0 0 -73
c0 -59 4 -77 18 -90 23 -21 38 -22 46 -2 9 25 73 19 91 -8 13 -21 29 -25 110
-35 51 -7 117 -12 145 -12 50 0 50 0 38 23 -7 12 -13 27 -13 32 -1 6 -6 22
-13 38 -28 63 -32 77 -21 77 5 0 24 -29 40 -65 17 -36 37 -65 44 -65 7 0 18
-6 24 -14 7 -8 20 -12 31 -9 12 3 24 -4 35 -21 10 -14 27 -26 39 -26 19 -1 18
-3 -9 -25 -16 -14 -37 -25 -46 -25 -21 0 -38 -21 -47 -55 -4 -15 -20 -34 -35
-43 -27 -16 -29 -16 -43 3 -10 14 -13 32 -9 58 5 24 3 37 -4 37 -6 0 -16 11
-21 24 -7 20 -20 26 -73 35 -89 15 -146 14 -153 -3 -3 -8 -27 -20 -54 -26 -27
-6 -54 -18 -61 -26 -6 -8 -18 -14 -26 -14 -9 0 -11 -5 -6 -12 9 -15 5 -58 -7
-73 -14 -18 -38 -165 -39 -238 -1 -62 20 -117 44 -117 19 0 19 -16 0 -24 -9
-3 -15 -18 -15 -38 0 -18 -7 -54 -14 -80 -8 -25 -16 -97 -18 -158 -3 -122 -6
-116 60 -140 35 -13 44 -40 13 -40 -17 0 -30 -25 -31 -57 0 -7 14 -19 30 -28
16 -9 30 -21 30 -28 0 -13 54 -47 74 -47 9 0 12 9 9 24 -4 19 -13 25 -44 30
-40 6 -54 31 -24 42 8 3 25 26 37 51 28 56 35 60 61 35 20 -20 20 -22 4 -40
-23 -26 -11 -129 15 -124 21 3 33 -15 19 -31 -6 -8 -6 -18 -1 -27 8 -12 13
-13 30 -2 28 17 30 16 30 -23 0 -22 -6 -37 -17 -44 -16 -9 -15 -12 11 -40 17
-17 40 -31 53 -31 19 0 23 -5 23 -30 0 -40 25 -87 50 -95 11 -3 20 -11 20 -16
0 -6 -14 -1 -31 11 -20 15 -38 20 -55 16 -13 -3 -36 -9 -51 -12 -30 -7 -53
-29 -53 -51 0 -18 26 -16 61 4 42 25 48 7 8 -26 -30 -26 -33 -32 -22 -50 11
-17 10 -22 -6 -33 -12 -9 -20 -31 -24 -71 -3 -32 -10 -64 -15 -70 -6 -7 -15
-48 -22 -92 -7 -44 -16 -93 -20 -110 -5 -16 -11 -51 -15 -77 -4 -38 -3 -48 9
-48 8 0 16 5 18 11 2 6 16 12 31 12 52 0 48 -21 -8 -47 -39 -19 -46 -36 -15
-36 13 0 18 -5 14 -15 -7 -17 4 -18 60 -5 64 14 73 -1 25 -41 -22 -18 -48 -47
-56 -62 -13 -27 -13 -29 7 -34 38 -10 19 -38 -25 -38 -22 0 -57 -8 -77 -18
-36 -16 -38 -20 -40 -65 -6 -134 -5 -142 17 -148 12 -3 25 -4 31 -3 31 6 37
-3 15 -20 l-24 -19 56 -16 c31 -9 57 -20 57 -24 0 -18 -78 -67 -115 -72 -32
-4 -40 -9 -39 -25 3 -31 24 -128 29 -134 3 -3 20 0 37 7 25 9 34 9 40 -1 15
-23 8 -35 -22 -42 -35 -8 -47 -22 -31 -38 6 -6 11 -25 11 -42 0 -17 5 -36 12
-43 9 -9 9 -17 -2 -36 -8 -16 -10 -39 -6 -64 3 -22 2 -52 -3 -68 -6 -16 -12
-62 -15 -102 -6 -70 -5 -72 14 -62 12 6 19 16 18 23 -1 7 10 25 25 41 15 16
27 40 27 53 0 28 50 83 97 107 18 9 35 16 38 16 9 0 -46 -82 -81 -123 -19 -20
-34 -42 -34 -47 0 -5 -18 -29 -40 -51 -22 -23 -39 -47 -38 -53 2 -6 -9 -27
-25 -47 -15 -20 -27 -39 -27 -44 0 -4 -6 -13 -14 -19 -14 -11 -20 -61 -17
-138 1 -27 6 -38 16 -38 14 0 20 -12 16 -34 -1 -5 5 -16 14 -26 20 -22 51 -15
70 14 12 18 22 21 50 18 31 -4 35 -7 29 -26 -4 -11 -11 -26 -16 -33 -18 -22 2
-33 50 -26 26 3 54 9 62 13 19 9 40 2 40 -14 0 -9 -17 -11 -59 -8 -36 3 -61 0
-65 -7 -4 -6 -18 -11 -31 -11 -31 0 -40 -16 -21 -36 9 -8 16 -19 16 -24 0 -5
14 -11 30 -15 45 -10 26 -25 -31 -25 -33 0 -49 -4 -49 -13 0 -7 -9 -18 -20
-25 -11 -7 -20 -17 -20 -24 0 -6 -18 -28 -41 -50 -22 -21 -37 -43 -34 -48 3
-5 8 -19 10 -30 4 -21 -9 -27 -20 -10 -12 19 -22 10 -34 -30 -19 -63 -26 -167
-12 -184 8 -9 8 -21 1 -40 -9 -25 -8 -26 30 -26 38 0 39 -1 34 -29 -5 -26 -3
-30 23 -35 17 -4 59 -2 94 4 114 19 129 17 129 -11 0 -19 -4 -21 -38 -15 -46
7 -160 -10 -176 -27 -7 -7 -29 -21 -49 -32 l-37 -20 47 -20 47 -21 -58 -18
c-58 -18 -58 -19 -52 -52 9 -48 30 -83 67 -115 45 -38 34 -55 -41 -63 -69 -8
-80 -22 -80 -100 0 -23 -3 -46 -7 -50 -5 -4 -13 -24 -18 -44 -7 -24 -17 -38
-30 -40 -11 -2 -35 -11 -53 -20 -32 -17 -33 -16 -51 6 -14 20 -24 23 -66 20
-53 -3 -72 -24 -31 -33 14 -3 37 -7 51 -10 38 -8 64 -58 58 -108 -3 -23 -10
-50 -14 -59 -5 -10 -5 -28 2 -44 9 -24 7 -30 -12 -45 -23 -17 -19 -39 7 -39
21 0 17 -19 -8 -40 -22 -18 -22 -19 -4 -33 27 -20 16 -50 -23 -61 -24 -7 -39
-6 -53 3 -16 10 -24 9 -44 -4 -27 -17 -32 -50 -9 -59 10 -4 15 1 15 15 0 26
25 35 55 19 13 -7 30 -10 38 -7 7 3 20 1 28 -4 11 -8 8 -14 -16 -34 -25 -21
-28 -27 -15 -35 8 -5 18 -10 23 -10 17 0 5 -21 -18 -32 -28 -12 -33 -28 -10
-28 20 0 19 -29 -2 -53 -13 -15 -15 -21 -5 -24 18 -7 15 -34 -5 -49 -15 -11
-16 -16 -6 -33 11 -18 10 -23 -12 -37 -24 -15 -27 -15 -44 0 -9 9 -24 16 -32
17 -8 0 -2 5 14 11 15 5 27 16 27 24 0 16 -41 28 -68 20 -11 -4 -25 1 -35 12
-11 12 -33 19 -62 21 -38 2 -52 -4 -95 -36 -27 -20 -50 -41 -50 -45 0 -13 37
-9 49 6 17 20 99 49 119 41 16 -6 15 -8 -3 -22 -11 -8 -39 -24 -62 -35 -46
-22 -60 -46 -44 -76 12 -23 5 -32 -24 -32 -32 0 -59 34 -51 65 4 14 2 25 -3
25 -14 0 -31 -34 -31 -59 0 -12 -12 -28 -27 -38 -16 -9 -30 -18 -32 -20 -2 -2
4 -12 14 -23 12 -13 31 -20 55 -20 49 0 100 -10 100 -20 0 -5 -15 -11 -32 -15
-95 -20 -177 -58 -260 -121 -31 -24 -64 -44 -74 -44 -9 0 -14 3 -11 7 4 4 -7
13 -24 20 l-31 13 22 29 c35 50 91 90 157 112 35 11 63 24 63 29 0 11 -22 27
-45 32 -12 2 -24 16 -31 37 l-11 34 -100 4 c-95 4 -101 3 -106 -16 -5 -20 -12
-21 -110 -21 -60 0 -109 4 -112 10 -10 16 -33 12 -57 -10 -21 -18 -23 -27 -23
-135 l0 -115 -30 -10 c-61 -19 -117 -23 -171 -10 -30 7 -54 17 -54 21 0 5 18
13 40 19 29 8 44 18 50 36 14 36 12 44 -8 44 -17 0 -56 64 -76 123 -7 22 -56
23 -113 1 -60 -23 -93 -9 -93 41 0 51 -16 46 -64 -18 -31 -41 -40 -44 -63 -21
-10 9 -29 14 -52 12 -31 -3 -36 -7 -39 -31 -5 -44 -49 -57 -166 -52 -70 3 -95
1 -93 -8 1 -7 -9 -12 -23 -12 -20 0 -26 7 -32 35 -4 19 -5 50 -2 68 l5 33 -30
-15 c-16 -9 -34 -24 -40 -33 -12 -22 -35 -5 -26 19 7 16 47 38 70 38 8 0 15 5
15 10 0 19 -28 22 -54 5 l-25 -16 4 45 c2 25 6 50 10 56 8 13 -14 52 -26 45
-5 -4 -14 -3 -21 1 -8 5 -6 11 7 20 14 10 15 18 8 41 -6 18 -5 48 3 88 6 33
14 101 17 152 l4 91 -30 6 c-16 3 -65 6 -109 6 -96 0 -143 19 -134 54 7 29
-10 133 -35 217 -17 55 -64 298 -85 442 -4 25 -11 37 -23 37 -14 1 -14 2 2 14
19 15 24 76 6 76 -7 0 -10 29 -7 90 2 77 1 90 -13 90 -13 0 -16 14 -16 86 0
63 -4 88 -15 97 -23 19 -30 47 -13 53 25 10 16 74 -10 74 -7 0 -15 9 -18 20
-4 17 -14 20 -60 20 -31 0 -58 4 -61 9 -9 14 48 33 79 25 26 -6 26 -5 15 16
-13 25 -6 40 12 22 17 -17 48 -15 48 3 0 9 -10 20 -22 25 -23 9 -23 9 -2 9 31
1 40 66 18 121 -12 29 -14 48 -7 63 12 29 5 67 -13 67 -8 0 -14 10 -14 25 0
18 5 25 19 25 18 0 19 3 10 30 -6 16 -16 28 -22 27 -13 -2 -15 70 -4 115 5 20
12 25 27 21 15 -4 20 0 20 16 0 15 -5 21 -16 19 -24 -4 -28 17 -8 36 15 16 15
18 0 35 -9 10 -16 26 -16 37 0 14 2 16 9 6 16 -26 51 -9 71 35 l19 42 -28 -5
c-16 -3 -32 -1 -35 5 -7 11 43 41 69 41 12 0 15 6 9 23 -9 28 -28 41 -32 22
-2 -8 -7 -15 -12 -15 -5 0 -7 7 -3 16 3 9 0 20 -7 24 -7 4 -100 11 -206 15
-107 4 -194 11 -194 16 0 5 76 9 169 9 l169 0 17 26 c15 23 15 27 1 43 -19 21
-21 41 -4 41 12 0 2 15 -10 15 -4 0 -13 4 -20 9 -10 6 -10 11 4 21 12 8 15 18
9 31 -4 10 -9 33 -10 49 -2 35 -35 126 -54 149 -8 9 -26 16 -42 16 -19 0 -29
5 -29 15 0 9 -8 28 -17 42 -10 14 -16 39 -14 55 2 23 -1 28 -19 28 -19 0 -22
-4 -18 -30 3 -16 2 -30 -2 -30 -16 0 -40 39 -40 64 0 22 -7 30 -30 39 -18 7
-36 25 -45 44 -11 23 -23 33 -40 34 -14 1 -29 3 -35 4 -5 1 -14 3 -20 4 -13 1
-13 38 1 43 21 7 -8 52 -42 65 l-34 13 51 -3 c36 -3 57 -10 73 -26 19 -19 29
-22 59 -16 46 8 52 12 52 31 0 12 7 14 31 9 31 -7 83 8 107 32 7 7 20 13 28
13 24 0 93 43 97 61 2 9 0 24 -5 33 -6 11 -5 17 4 20 7 2 21 7 31 10 9 3 22
18 28 33 6 15 15 36 20 45 15 29 11 34 -32 51 -26 10 -40 21 -36 29 2 8 10 40
17 71 9 44 17 60 33 66 20 8 22 17 25 112 2 57 4 115 5 129 2 21 -3 25 -28 28
-61 5 -155 35 -155 48 0 19 16 18 78 -6 62 -24 112 -26 112 -6 0 8 -4 17 -9
20 -5 3 -9 41 -8 84 1 57 -4 89 -18 118 -10 21 -22 68 -27 104 -10 79 -10 87
-2 127 8 40 -2 84 -19 82 -32 -4 -49 2 -44 15 3 7 2 30 -3 49 -5 22 -4 39 3
46 6 6 11 33 11 61 1 55 7 58 54 35 35 -18 73 -12 97 15 17 19 17 52 1 150 -4
19 -12 66 -18 104 -6 37 -17 70 -24 73 -8 3 -25 -5 -40 -16 -15 -12 -31 -21
-35 -21 -18 0 -8 28 14 43 31 21 15 31 -27 17 -54 -17 -67 -6 -18 15 23 10 40
21 38 23 -3 2 -28 10 -58 17 l-53 13 45 2 c25 1 56 5 70 9 20 6 22 9 10 16
-12 8 -7 11 20 15 l35 5 -2 60 c-3 147 -2 180 6 188 6 6 13 -3 18 -24 7 -27
15 -35 38 -39 26 -5 32 -13 54 -78 15 -44 30 -72 38 -72 9 0 12 7 9 18 -7 21
8 49 18 33 4 -6 4 -15 1 -21 -3 -5 4 -10 16 -10 20 0 21 1 5 25 -9 13 -16 35
-16 47 0 13 -9 43 -20 67 -22 47 -26 81 -10 81 6 0 10 -6 10 -14 0 -7 9 -25
20 -39 11 -14 20 -34 20 -45 0 -12 5 -24 11 -27 5 -4 14 -18 19 -31 8 -19 17
-24 45 -24 38 0 47 -15 15 -25 -15 -5 -19 -13 -15 -32 2 -15 9 -31 15 -37 5
-5 10 -18 10 -28 0 -9 8 -22 19 -27 37 -20 126 19 300 135 88 58 96 63 116 63
17 0 17 -1 -5 -14 -23 -13 -24 -14 -6 -21 12 -5 23 -2 31 9 6 8 29 17 50 19
28 2 41 8 43 20 4 19 -19 48 -37 48 -6 0 -11 7 -11 15 0 18 31 20 48 3 17 -17
29 0 14 20 -7 9 -16 26 -21 37 -11 26 -55 71 -111 115 -145 113 -122 118 39 9
105 -71 120 -85 126 -115 3 -19 12 -34 19 -34 17 0 46 33 46 52 0 9 7 18 15
22 8 3 15 17 15 32 0 14 6 38 14 52 27 54 46 103 46 122 0 20 -19 20 -2150 20
l-2150 0 0 -5000z m3337 4828 c-3 -8 -6 -5 -6 6 -1 11 2 17 5 13 3 -3 4 -12 1
-19z m-227 -1558 c12 -8 9 -10 -12 -10 -15 0 -30 5 -33 10 -8 13 25 13 45 0z
m-127 -475 c-6 -16 22 -55 39 -55 6 0 21 -9 35 -20 14 -11 22 -20 17 -20 -19
0 17 -23 48 -30 31 -7 30 -8 -17 -9 l-50 -1 3 -50 c4 -46 2 -50 -18 -50 -12 0
-33 9 -47 20 -17 13 -41 20 -68 20 -38 0 -44 3 -49 26 -4 15 -4 39 -1 55 6 24
2 31 -20 41 -32 15 -15 28 38 28 25 0 37 5 37 14 0 13 36 44 52 45 4 1 5 -6 1
-14z m-63 -19 c0 -3 -4 -8 -10 -11 -5 -3 -10 -1 -10 4 0 6 5 11 10 11 6 0 10
-2 10 -4z m-512 -533 c-10 -2 -26 -2 -35 0 -10 3 -2 5 17 5 19 0 27 -2 18 -5z
m4046 -588 c-4 -8 -13 -15 -21 -15 -13 0 -13 3 -3 15 7 8 16 15 21 15 5 0 6
-7 3 -15z m-3319 -625 c3 -5 -9 -8 -26 -8 -19 1 -37 -6 -44 -15 -7 -10 -19
-17 -27 -17 -9 0 -21 -7 -28 -15 -7 -9 -34 -25 -59 -36 -49 -21 -56 -25 -111
-55 -19 -10 -37 -20 -38 -21 -2 -1 4 -16 15 -33 16 -29 17 -32 2 -41 -9 -5
-20 -20 -23 -34 -8 -32 -28 -32 -62 0 -27 25 -74 34 -74 15 0 -14 -27 -13 -32
2 -4 12 -34 1 -153 -58 -66 -32 -118 -47 -113 -32 3 7 17 16 33 21 16 6 53 25
82 44 29 18 55 33 59 33 3 0 21 7 40 16 34 16 45 46 23 59 -23 15 26 33 74 28
32 -4 47 -2 47 6 0 6 13 11 29 11 28 0 120 46 184 92 58 42 185 66 202 38z
m3071 -405 c18 -14 18 -14 -8 -15 -27 0 -43 12 -31 24 9 9 17 8 39 -9z m651
-700 l32 -35 -64 0 c-43 0 -68 5 -79 15 -9 9 -33 15 -60 15 -25 0 -46 5 -46
10 0 6 19 10 43 10 23 0 51 8 62 16 29 22 74 10 112 -31z m-1064 -1150 c-3
-14 -30 -18 -61 -9 l-27 7 25 8 c32 10 66 7 63 -6z m-16 -71 c1 -5 -1 -15 -6
-23 -8 -12 -12 -13 -25 -2 -13 11 -14 17 -5 28 13 14 31 13 36 -3z m-2107 -44
c0 -5 -4 -10 -10 -10 -5 0 -10 5 -10 10 0 6 5 10 10 10 6 0 10 -4 10 -10z
m2090 -106 c0 -8 -7 -14 -15 -14 -15 0 -21 21 -9 33 10 9 24 -2 24 -19z
m-1268 -170 c33 -8 43 -31 23 -54 -26 -29 -115 -51 -157 -39 -21 5 -39 13 -42
17 -2 4 15 18 40 31 24 13 44 30 44 37 0 16 20 24 45 18 11 -2 32 -7 47 -10z
m735 -101 c20 -8 11 -25 -24 -46 -31 -18 -31 -18 -63 12 -42 38 -32 55 27 46
25 -4 52 -9 60 -12z m-1107 -287 c0 -11 -19 -15 -25 -6 -3 5 1 10 9 10 9 0 16
-2 16 -4z m-60 -145 c0 -17 -35 -22 -98 -15 -42 4 -59 10 -51 15 18 12 149 11
149 0z m-218 -24 c-12 -6 -25 -7 -29 -3 -11 10 18 25 35 18 13 -4 11 -8 -6
-15z m-698 -284 c-9 -50 -13 -56 -30 -42 -19 15 -18 34 3 59 26 30 35 24 27
-17z m4638 31 c3 -3 -1 -18 -9 -35 -10 -20 -22 -29 -38 -29 -43 0 -41 21 5 52
28 19 34 21 42 12z m-1032 -48 c58 -20 120 -43 139 -52 18 -9 45 -20 60 -24
14 -5 58 -21 96 -35 39 -15 80 -29 92 -32 32 -8 49 -31 35 -45 -17 -17 -15
-94 3 -128 11 -21 27 -33 58 -41 23 -7 45 -15 50 -19 4 -3 -18 -17 -48 -29
-50 -21 -55 -26 -55 -54 0 -33 17 -87 37 -121 6 -11 8 -35 6 -55 -7 -52 18
-71 111 -84 58 -8 83 -8 114 2 22 8 45 10 52 6 7 -4 92 -13 189 -21 97 -7 194
-16 216 -21 53 -11 230 9 272 31 18 9 36 17 40 19 13 4 6 69 -8 78 -8 5 -25
12 -39 15 -47 9 -115 52 -115 71 0 36 77 18 206 -48 20 -11 42 -19 48 -19 23
0 171 -62 166 -69 -2 -5 -23 -11 -46 -15 -61 -10 -167 -42 -284 -87 -27 -10
-56 -19 -64 -19 -8 0 -22 -6 -30 -13 -9 -7 -43 -22 -76 -32 -62 -19 -152 -50
-195 -68 -57 -23 -309 -110 -355 -122 -27 -7 -88 -27 -135 -44 -47 -17 -137
-47 -200 -67 -63 -19 -124 -39 -135 -43 -77 -33 -152 -61 -160 -61 -6 0 -69
-19 -140 -43 -72 -24 -161 -54 -200 -66 -38 -13 -90 -31 -115 -41 -25 -10 -63
-22 -85 -26 -22 -4 -51 -15 -64 -25 -13 -11 -32 -19 -42 -19 -10 0 -20 -4 -23
-9 -3 -4 -32 -11 -65 -15 -33 -4 -64 -13 -70 -20 -7 -8 -42 -20 -78 -27 -37
-7 -81 -23 -98 -35 -18 -12 -56 -27 -86 -34 -30 -7 -70 -19 -89 -27 -19 -7
-78 -27 -130 -43 -80 -24 -168 -53 -345 -113 -16 -5 -47 -12 -67 -14 -30 -4
-38 -2 -38 11 0 9 12 18 28 22 48 10 52 13 52 38 0 16 -13 35 -40 56 -22 17
-40 37 -40 44 0 6 25 36 55 66 42 42 54 59 49 75 -4 11 -12 24 -18 28 -15 10
-96 -1 -121 -17 -43 -27 -84 -36 -113 -23 -34 15 -37 29 -12 69 11 18 20 48
20 66 0 17 1 33 3 33 1 1 124 7 272 14 149 7 297 17 330 23 33 6 123 21 200
33 77 12 150 28 162 35 12 8 36 14 52 14 16 0 42 5 58 11 15 6 50 15 77 20 27
5 58 18 68 29 11 12 32 20 50 20 18 0 61 14 97 32 138 66 277 136 307 154 31
19 84 75 84 90 0 4 18 25 40 46 22 22 40 44 40 49 0 5 6 9 14 9 27 0 37 277
10 287 -8 3 -14 14 -14 24 0 11 -7 22 -15 25 -8 4 -15 11 -15 18 0 6 -9 22
-19 35 -16 21 -18 37 -14 101 5 66 2 91 -22 166 -15 49 -33 94 -39 99 -6 6
-18 19 -26 29 -18 23 -26 25 130 -28z m-3910 -5 c0 -11 -4 -22 -9 -25 -4 -3
-18 -34 -31 -68 -30 -82 -32 -202 -4 -222 17 -13 16 -14 -12 -20 -31 -7 -58
-43 -82 -111 -20 -54 -11 -152 18 -207 13 -24 28 -53 34 -64 16 -29 102 -124
113 -124 4 0 28 -18 52 -40 25 -22 49 -40 55 -40 5 0 19 -9 30 -19 12 -11 53
-36 91 -56 39 -21 77 -43 85 -50 23 -20 89 -45 118 -45 13 0 66 -17 116 -39
50 -21 123 -44 161 -51 39 -7 81 -18 95 -26 22 -11 155 -37 268 -51 32 -4 42
-10 42 -24 0 -10 -4 -20 -9 -23 -13 -8 -33 -125 -30 -176 2 -25 2 -69 1 -98
-2 -50 -3 -52 -27 -46 -21 5 -26 1 -35 -22 -6 -15 -20 -34 -30 -41 -22 -15
-28 -81 -10 -99 5 -5 6 -22 2 -37 l-7 -27 -40 21 c-56 30 -172 106 -180 119
-3 5 -14 10 -23 10 -27 0 -216 106 -257 145 -12 11 -44 31 -71 45 -27 14 -78
43 -114 66 -105 67 -133 83 -177 104 -24 12 -57 34 -75 50 -18 17 -37 30 -42
30 -5 0 -23 10 -40 23 -17 13 -69 45 -116 73 -46 27 -92 54 -102 59 -9 6 -54
35 -100 66 -46 31 -96 64 -113 73 -16 9 -46 27 -66 39 -19 12 -50 31 -69 42
-18 11 -56 35 -84 54 -28 18 -73 44 -101 58 -27 14 -64 36 -82 49 -17 13 -37
24 -44 24 -7 0 -22 9 -33 19 -12 10 -46 31 -76 47 -30 15 -100 57 -155 92 -55
36 -125 81 -155 101 -30 19 -57 38 -60 41 -3 4 -30 20 -60 37 l-55 32 28 10
c16 6 33 11 40 11 6 0 50 9 97 21 47 11 150 36 230 55 80 20 167 42 194 50 26
8 62 14 78 14 17 0 42 6 56 14 15 8 59 19 97 25 77 11 161 30 245 55 30 10 78
21 105 26 103 18 160 32 180 43 17 9 56 17 133 26 6 0 12 -8 12 -18z m4720
-118 c0 -13 -44 2 -70 23 -47 40 -17 51 32 11 21 -16 38 -32 38 -34z m-125 31
c34 -22 31 -36 -7 -32 -25 2 -34 8 -36 26 -4 26 9 28 43 6z m-115 -154 c10 -6
11 -12 5 -19 -7 -6 -18 -3 -34 10 -20 17 -21 19 -5 19 11 0 26 -5 34 -10z
m-5995 -190 c-10 -11 -26 -20 -36 -20 -10 0 -21 -4 -24 -10 -3 -5 -21 -11 -38
-11 -29 -1 -28 -2 13 -13 25 -6 57 -21 70 -34 36 -33 151 -110 197 -131 11 -5
24 -15 28 -20 3 -6 14 -11 23 -11 9 0 37 -14 62 -31 25 -16 91 -57 148 -90 56
-34 102 -64 102 -68 0 -4 10 -12 23 -18 12 -6 34 -20 47 -32 14 -12 57 -40 95
-62 39 -23 81 -52 95 -65 14 -13 43 -30 65 -40 22 -9 57 -32 78 -50 20 -19 42
-34 48 -34 6 0 28 -13 49 -30 21 -16 42 -30 47 -30 5 0 33 -16 63 -36 30 -20
73 -45 95 -56 22 -12 56 -34 75 -49 19 -16 39 -29 44 -29 5 0 25 -12 45 -27
50 -40 128 -88 186 -117 28 -14 69 -41 90 -61 22 -19 43 -35 47 -35 8 0 151
-93 211 -137 21 -15 51 -35 67 -43 98 -52 149 -84 154 -96 3 -7 24 -23 48 -35
24 -12 72 -41 108 -64 36 -23 86 -52 112 -64 26 -12 59 -38 74 -57 15 -19 35
-34 44 -34 24 0 60 -29 60 -49 0 -18 55 -53 150 -97 19 -9 42 -21 50 -28 8 -7
34 -18 57 -26 38 -12 47 -11 94 9 28 11 60 21 70 21 10 0 21 5 24 10 3 6 13
10 22 10 14 0 66 20 105 41 10 5 28 9 41 9 12 0 39 9 60 20 40 22 232 70 278
70 17 0 41 11 62 29 24 22 48 32 88 37 33 4 72 18 100 35 25 16 51 29 58 29 6
0 37 13 69 28 31 16 102 41 157 57 101 28 157 48 252 91 28 13 61 24 72 24 11
0 82 22 158 50 76 28 142 50 147 50 8 0 116 42 314 121 43 17 52 12 52 -31 0
-35 -3 -40 -27 -46 -16 -4 -55 -20 -89 -35 -34 -16 -67 -29 -75 -29 -8 0 -23
-6 -34 -14 -11 -7 -60 -27 -110 -45 -49 -17 -115 -40 -145 -52 -30 -11 -86
-30 -124 -40 -37 -11 -85 -28 -105 -38 -20 -10 -90 -35 -156 -56 -66 -20 -156
-52 -201 -71 -44 -18 -129 -47 -190 -64 -60 -17 -121 -37 -136 -45 -14 -8 -35
-15 -45 -15 -10 0 -23 -4 -28 -9 -6 -5 -39 -17 -75 -26 -36 -9 -69 -20 -75
-25 -5 -4 -26 -13 -45 -18 -45 -13 -211 -72 -320 -113 -172 -64 -217 -74 -268
-60 -26 6 -63 23 -83 37 -19 13 -40 24 -46 24 -6 0 -21 8 -34 18 -13 11 -46
27 -74 37 -27 11 -56 27 -63 37 -7 10 -33 29 -57 43 -24 14 -49 33 -56 41 -7
8 -27 21 -46 29 -18 8 -36 21 -39 30 -3 8 -16 15 -29 15 -12 0 -44 17 -71 37
-52 40 -113 76 -204 120 -100 48 -191 106 -226 145 -18 21 -39 38 -44 38 -15
0 -94 43 -113 61 -33 30 -231 159 -245 159 -5 0 -23 15 -39 33 -15 18 -43 42
-60 55 -29 20 -31 25 -21 47 15 34 7 47 -47 74 -52 26 -154 91 -209 133 -34
26 -95 46 -160 52 -69 8 -112 26 -181 78 -28 20 -68 45 -90 53 -21 9 -54 29
-74 45 -20 15 -56 39 -81 52 -25 13 -66 39 -93 58 -26 19 -67 46 -90 60 -62
36 -159 100 -182 120 -11 9 -36 26 -55 36 -19 10 -42 24 -50 30 -8 6 -41 26
-72 43 -32 17 -88 54 -124 81 l-67 50 32 6 c17 4 31 13 31 20 0 20 111 50 194
53 38 1 39 1 21 -19z m6639 -27 c12 -8 -21 -21 -56 -22 -18 -1 -33 8 -47 28
-11 15 -18 31 -15 34 6 5 93 -25 118 -40z m-2660 -32 c3 -5 -1 -15 -10 -22
-12 -10 -25 -10 -56 -2 -31 8 -50 8 -77 -2 -119 -41 -306 -57 -306 -25 0 10
15 17 50 22 28 4 64 10 80 13 25 5 183 18 287 24 15 0 29 -3 32 -8z m-858 -42
c22 -14 51 -19 97 -19 36 0 69 -5 72 -11 13 -19 -4 -21 -72 -8 -37 7 -88 13
-113 14 -25 0 -86 2 -136 3 -91 2 -135 17 -120 40 12 20 234 4 272 -19z m-241
-92 c21 -16 13 -37 -15 -37 -22 0 -34 15 -26 35 7 19 17 19 41 2z m-168 -28
c35 -6 63 -15 63 -19 0 -5 9 -12 20 -15 28 -9 25 -24 -6 -35 -15 -6 -39 -19
-54 -30 -35 -25 -48 -25 -74 -1 -12 11 -37 24 -56 29 -25 7 -28 10 -13 11 25
1 50 36 33 46 -16 10 -12 25 7 25 9 0 45 -5 80 -11z m343 -59 c51 -14 129 -66
139 -92 11 -28 -12 -58 -44 -58 -12 0 -42 -7 -65 -15 -57 -20 -190 -21 -190
-1 0 8 4 16 8 18 16 6 63 100 62 121 -1 12 -2 25 -1 30 1 10 49 9 91 -3z
m-145 -10 c3 -5 -1 -10 -9 -10 -8 0 -18 5 -21 10 -3 6 1 10 9 10 8 0 18 -4 21
-10z m4333 -9 c9 -5 44 -17 77 -26 94 -26 142 -45 156 -62 18 -21 -14 -46 -88
-68 -32 -9 -83 -27 -113 -41 -60 -26 -266 -98 -345 -120 -27 -8 -73 -25 -101
-39 -28 -14 -58 -25 -65 -25 -8 0 -19 -4 -25 -9 -5 -5 -40 -19 -79 -30 -38
-12 -79 -26 -90 -31 -11 -5 -63 -23 -115 -40 -52 -17 -117 -42 -144 -56 -28
-13 -59 -24 -70 -24 -12 0 -33 -6 -47 -14 -14 -7 -39 -16 -55 -20 -16 -4 -42
-13 -59 -21 -16 -7 -39 -15 -50 -18 -11 -3 -42 -14 -70 -25 -27 -11 -82 -30
-121 -42 -62 -19 -79 -20 -130 -11 -32 6 -59 11 -61 11 -2 0 -3 4 -3 9 0 5 15
12 33 16 17 4 42 13 54 21 12 7 39 18 60 23 57 14 224 70 256 87 16 8 34 14
40 14 7 0 29 9 50 20 20 11 50 20 67 20 16 0 58 13 92 28 35 16 90 37 123 47
33 9 97 35 143 56 45 21 95 39 110 39 36 0 174 45 232 76 25 13 52 24 60 24
26 0 141 39 204 69 34 16 80 34 104 40 23 7 42 15 42 19 0 4 -20 14 -44 21
-65 19 -80 33 -72 64 7 29 16 32 44 18z m-3923 -252 c-9 -14 -45 -11 -45 4 0
8 3 17 6 20 10 9 46 -12 39 -24z m206 -402 c-13 -13 -26 -3 -16 12 3 6 11 8
17 5 6 -4 6 -10 -1 -17z m1934 -107 c-3 -5 -11 -10 -16 -10 -6 0 -7 5 -4 10 3
6 11 10 16 10 6 0 7 -4 4 -10z m-62 -27 c-7 -2 -19 -2 -25 0 -7 3 -2 5 12 5
14 0 19 -2 13 -5z m-196 -69 c-3 -3 -12 -4 -19 -1 -8 3 -5 6 6 6 11 1 17 -2
13 -5z m-1967 -383 c0 -5 -22 -14 -49 -21 -27 -6 -57 -20 -67 -31 -9 -10 -22
-19 -28 -19 -6 0 -28 -9 -49 -20 -20 -11 -46 -20 -57 -20 -12 0 -32 -8 -46
-17 -24 -16 -28 -15 -61 2 -32 17 -73 63 -73 80 0 4 29 5 65 3 47 -4 85 0 138
14 61 17 98 23 215 37 6 0 12 -3 12 -8z m5375 -311 c15 -6 8 -9 -27 -9 -27 -1
-48 4 -48 9 0 12 47 12 75 0z"/>
<path d="M1143 2043 c9 -2 23 -2 30 0 6 3 -1 5 -18 5 -16 0 -22 -2 -12 -5z"/>
<path d="M4321 9937 c-14 -81 -14 -77 8 -77 12 0 33 18 52 45 18 25 36 45 40
45 3 0 14 11 23 25 l16 25 -64 0 -64 0 -11 -63z"/>
<path d="M4473 9994 c3 -3 -14 -37 -39 -74 -24 -38 -44 -72 -44 -77 0 -16 -53
-108 -66 -116 -8 -4 -14 -14 -14 -20 0 -7 -5 -18 -12 -25 -20 -20 -17 -56 5
-73 20 -17 20 -17 -4 -24 -13 -4 -36 -19 -51 -33 -25 -23 -28 -33 -28 -87 0
-33 -4 -65 -9 -71 -5 -5 -13 -42 -19 -82 -12 -80 -23 -102 -56 -102 -48 0 -51
15 -30 118 7 36 -19 26 -62 -23 -21 -24 -47 -45 -56 -45 -21 0 -24 16 -5 23 7
3 4 6 -6 6 -10 1 -25 -6 -34 -14 -8 -9 -28 -19 -44 -22 -16 -3 -34 -12 -40
-19 -6 -8 -17 -14 -24 -14 -15 0 -75 -50 -75 -62 0 -5 42 -5 94 -2 104 8 161
-3 91 -17 -22 -4 -69 -8 -105 -9 -36 0 -71 -4 -78 -9 -8 -5 -15 -34 -17 -75
-1 -37 -6 -70 -9 -73 -3 -4 -6 -1 -6 5 0 7 -4 12 -8 12 -13 0 -32 -85 -32
-141 0 -27 -7 -64 -16 -80 -23 -45 -12 -61 38 -57 35 2 45 8 56 31 11 23 16
25 33 17 10 -6 19 -19 19 -28 0 -10 6 -27 14 -37 13 -18 14 -17 31 8 21 33 45
35 64 5 11 -18 11 -22 -3 -30 -24 -13 -19 -43 9 -62 32 -21 66 -21 59 -1 -5
11 1 15 25 15 17 0 32 5 32 10 2 13 6 29 9 33 1 1 3 12 4 24 4 32 7 33 70 40
59 6 66 1 40 -28 -14 -16 -13 -18 13 -31 17 -8 27 -20 25 -30 -2 -13 8 -18 45
-23 64 -9 75 -13 68 -26 -7 -10 -85 -7 -158 7 -23 5 -35 -2 -72 -40 -25 -25
-45 -54 -45 -65 0 -34 12 -51 35 -51 23 0 55 -23 55 -40 0 -4 14 -13 30 -19
46 -15 38 -32 -12 -25 -24 3 -48 7 -55 9 -6 2 -27 -7 -45 -21 -18 -13 -52 -36
-76 -51 -27 -18 -45 -38 -48 -55 -4 -15 -13 -33 -20 -39 -8 -6 -14 -16 -14
-21 0 -5 -11 -24 -25 -43 -23 -29 -25 -41 -23 -100 1 -36 6 -68 10 -71 4 -3
-1 -13 -11 -23 -13 -13 -20 -39 -23 -97 -8 -114 -5 -177 9 -181 8 -3 11 7 10
29 -2 25 2 34 18 36 17 4 18 2 6 -12 -8 -9 -9 -16 -3 -16 6 0 17 -3 26 -6 10
-4 16 -1 16 9 0 8 6 17 14 20 8 3 22 23 31 44 9 21 23 52 32 68 9 17 29 55 45
85 35 68 45 77 59 63 8 -8 6 -21 -9 -50 -11 -21 -32 -63 -47 -93 -15 -30 -47
-86 -71 -125 -24 -38 -44 -75 -44 -81 0 -7 12 -14 28 -16 42 -5 35 -29 -16
-55 -9 -4 21 -43 33 -43 8 0 15 -9 15 -20 0 -16 -7 -20 -38 -20 -42 0 -62 -14
-62 -42 0 -10 -7 -21 -15 -24 -11 -5 -13 -19 -8 -71 5 -50 3 -67 -8 -74 -31
-19 5 -117 38 -105 8 3 17 -4 23 -18 5 -13 19 -31 31 -40 21 -14 21 -16 4 -22
-10 -4 -26 -2 -36 4 -20 13 -58 16 -83 6 -11 -4 -16 -19 -16 -46 0 -33 3 -39
16 -34 9 3 27 9 40 12 l25 6 -26 -47 c-34 -65 -34 -127 -1 -149 14 -8 26 -28
28 -42 2 -15 11 -32 20 -38 14 -8 24 -4 52 23 19 18 39 30 45 27 22 -14 10
-43 -30 -72 -22 -16 -55 -41 -73 -56 l-32 -27 1 -98 c0 -54 4 -103 8 -110 4
-6 2 -43 -5 -82 -11 -62 -10 -75 5 -107 17 -34 19 -36 60 -31 40 4 169 34 252
57 90 27 155 21 155 -13 0 -9 -19 -13 -65 -14 -36 0 -77 -5 -92 -11 -16 -5
-54 -15 -85 -22 -56 -13 -56 -13 -35 -30 l21 -17 -30 -29 c-61 -59 -62 -62
-10 -84 47 -21 57 -36 31 -46 -16 -7 -48 -64 -40 -73 3 -3 15 0 25 7 17 10 20
10 20 -7 0 -10 7 -21 15 -25 8 -3 15 -13 15 -22 0 -9 7 -22 15 -28 9 -6 18
-29 22 -51 3 -22 10 -43 16 -46 14 -10 -24 -58 -46 -59 -10 0 -22 -11 -27 -25
-12 -31 -18 -31 -30 -1 -17 45 -86 19 -165 -61 -12 -13 -27 -23 -34 -23 -21 0
-11 -20 13 -26 17 -4 26 -14 28 -32 3 -25 6 -27 46 -25 53 2 54 -7 2 -30 -44
-19 -47 -30 -25 -92 8 -21 11 -42 7 -45 -4 -3 -7 -12 -7 -20 0 -10 -9 -14 -27
-13 -19 1 -28 -3 -28 -13 0 -13 9 -14 51 -9 40 5 50 4 47 -7 -3 -7 -23 -16
-46 -21 -41 -8 -54 -21 -30 -29 7 -3 3 -13 -13 -28 -40 -41 -49 -67 -43 -125
4 -30 3 -62 0 -72 -7 -17 -8 -17 -21 1 -13 17 -15 17 -21 2 -3 -9 -4 -31 -1
-49 2 -18 -2 -45 -10 -61 -9 -17 -16 -58 -16 -94 -1 -57 2 -67 24 -84 13 -11
33 -28 45 -37 12 -10 27 -21 35 -24 8 -3 0 -6 -16 -6 -19 -1 -37 7 -48 19 -9
11 -28 20 -43 20 -23 0 -25 -4 -23 -32 2 -18 -3 -43 -9 -55 -7 -12 -12 -24
-12 -27 0 -2 34 -2 75 1 52 4 83 2 100 -7 13 -7 31 -10 41 -6 15 6 15 8 2 24
-38 45 -50 139 -32 240 l7 34 -43 -22 c-30 -15 -45 -19 -53 -11 -14 14 19 40
51 41 12 0 22 5 22 10 0 6 6 10 13 10 12 0 57 43 57 55 0 16 108 127 154 159
65 44 89 55 216 106 153 61 308 75 485 45 168 -29 290 -82 379 -165 75 -70 76
-71 76 -86 0 -8 9 -14 20 -14 11 0 20 4 20 10 0 14 46 35 131 59 60 17 83 19
104 11 44 -17 75 9 75 63 0 24 -5 48 -12 55 -8 8 -62 12 -178 12 -212 0 -329
9 -304 23 12 7 108 10 254 9 208 -2 232 -1 210 12 -14 8 -55 17 -92 21 -59 6
-68 10 -68 27 0 14 5 18 18 14 52 -14 135 -27 148 -22 12 5 14 15 9 49 -4 23
-13 52 -21 64 -11 18 -11 23 1 33 24 20 19 59 -10 70 -14 5 -30 21 -35 34 -15
39 -80 64 -80 31 0 -11 -12 -15 -44 -15 -25 0 -48 5 -51 10 -6 10 1 14 45 24
18 4 25 12 26 31 3 40 12 55 35 55 34 0 16 22 -32 39 -54 19 -52 18 -45 29 4
7 19 6 42 -1 28 -9 37 -8 44 3 9 14 -28 54 -112 122 -18 15 -50 41 -70 58 -26
22 -43 30 -57 25 -17 -5 -21 0 -27 31 -5 26 -3 39 7 45 21 13 27 11 51 -21 12
-16 28 -30 35 -30 8 0 16 -7 19 -15 4 -9 15 -20 26 -26 16 -8 24 -5 45 15 17
17 37 26 57 26 17 0 36 4 43 8 18 11 3 62 -21 72 -17 7 -18 9 -3 9 9 1 17 4
17 7 0 12 -46 43 -75 50 -16 3 -37 13 -45 20 -51 48 -96 84 -105 84 -21 0 -73
55 -79 83 -5 21 -3 27 11 27 29 -1 99 -36 114 -57 8 -11 41 -35 74 -54 33 -18
62 -36 65 -41 10 -14 105 -78 115 -78 5 0 -2 11 -16 24 l-27 23 17 49 c9 27
20 55 24 61 4 7 10 42 13 78 5 56 3 68 -16 92 -12 16 -17 29 -11 31 21 7 11
22 -14 22 -16 0 -25 -6 -25 -15 0 -8 -4 -15 -10 -15 -5 0 -10 5 -10 10 0 6 -6
10 -14 10 -7 0 -25 9 -39 20 -14 11 -32 20 -40 20 -9 0 -13 7 -11 18 3 9 -7
32 -21 51 -34 47 -34 109 1 78 34 -31 44 -37 59 -37 24 0 17 29 -10 42 -14 6
-25 14 -25 18 0 3 -18 17 -41 29 -47 27 -46 36 3 23 44 -12 58 -6 58 27 0 30
-23 54 -66 68 l-29 10 35 11 c19 6 53 16 75 21 31 8 45 20 63 50 19 34 20 41
7 48 -23 13 -105 94 -105 104 0 16 67 10 74 -6 8 -21 65 -20 73 1 3 9 -2 30
-11 46 -10 16 -16 38 -13 49 3 12 0 22 -9 26 -8 3 -14 10 -14 17 0 7 -20 32
-45 56 -51 50 -55 65 -22 74 18 5 20 8 7 16 -8 5 -32 10 -52 10 -30 0 -38 4
-38 19 0 10 -7 24 -15 31 -8 7 -15 23 -15 35 0 22 -69 95 -90 95 -6 0 -10 7
-10 15 0 8 -10 20 -22 26 -13 7 -29 20 -36 31 -7 10 -19 18 -26 18 -13 0 -72
54 -114 105 -24 29 -72 66 -109 86 -13 7 -23 19 -23 28 0 9 -9 22 -20 29 -11
7 -20 23 -20 37 0 45 39 31 119 -45 45 -43 82 -70 95 -69 l21 0 -22 11 c-11 6
-23 21 -26 34 -3 20 0 24 19 24 17 0 22 4 18 15 -5 12 2 15 29 15 26 0 39 6
52 26 19 30 23 90 6 107 -6 6 -11 20 -11 31 0 17 -63 86 -79 86 -3 0 -6 52 -6
115 -1 151 7 154 40 10 9 -38 25 -85 35 -103 11 -18 20 -43 20 -56 0 -14 10
-28 25 -36 14 -7 26 -17 26 -22 1 -4 2 -11 3 -15 1 -5 6 -23 10 -40 4 -18 11
-33 15 -33 10 0 82 -136 75 -143 -3 -3 4 -10 15 -16 11 -6 25 -21 31 -32 14
-26 4 -60 -16 -52 -8 3 -13 12 -10 20 8 19 -24 30 -35 12 -14 -22 37 -62 70
-54 16 3 34 0 46 -9 26 -20 43 -20 63 0 15 15 15 17 -1 29 -15 11 -16 13 -2
19 25 9 15 96 -11 96 -18 0 -18 14 1 30 21 17 19 30 -5 30 -17 0 -18 5 -13 51
5 45 4 51 -16 56 -11 3 -21 11 -21 18 0 8 -9 17 -21 20 -28 9 -18 52 21 85 25
22 28 30 22 55 -6 20 -16 31 -30 33 -28 4 -30 44 -4 87 18 29 18 30 -7 75 -14
25 -32 50 -40 56 -29 22 -68 230 -49 266 5 10 4 19 -2 23 -13 8 -13 102 0 110
13 8 9 76 -6 99 -7 11 -16 46 -20 78 -4 32 -11 61 -15 64 -5 3 -9 15 -9 26 0
11 -9 35 -20 54 -19 30 -19 33 -4 42 17 10 17 30 -2 130 -6 29 -4 33 11 30 25
-4 47 -74 40 -120 -5 -25 -1 -48 9 -69 8 -17 21 -57 27 -90 13 -64 32 -90 51
-71 13 13 49 16 45 5 -2 -9 6 -13 24 -13 6 0 9 7 5 15 -3 8 -1 15 3 15 28 0 9
94 -23 112 -9 5 -16 18 -16 28 0 11 -10 25 -22 31 l-21 12 24 12 c13 8 26 24
29 37 4 16 15 25 35 28 21 4 31 12 33 27 3 19 8 21 38 16 22 -4 34 -2 34 6 0
6 -5 11 -11 11 -7 0 -9 11 -6 30 8 37 0 60 -19 53 -8 -3 -15 0 -15 6 -1 6 -2
17 -3 24 0 6 -16 13 -34 15 -28 3 -31 6 -21 18 6 8 20 14 31 14 17 0 19 5 13
33 -13 61 -44 82 -148 96 -185 25 -175 23 -149 32 13 5 73 5 135 0 92 -8 113
-7 120 4 9 16 68 35 110 35 50 0 46 27 -10 85 -13 12 -23 30 -23 39 0 9 -4 16
-10 16 -5 0 -10 6 -10 13 0 17 35 35 73 39 34 4 41 22 10 26 -13 2 -23 7 -23
12 0 5 -7 16 -16 24 -14 14 -77 16 -546 16 -292 0 -529 -3 -525 -6z m-461
-1305 c-21 -6 -39 -6 -50 0 -13 8 -5 10 33 10 48 -1 49 -1 17 -10z m55 -1267
c-10 -10 -17 -30 -17 -44 0 -21 -6 -28 -30 -33 -17 -4 -35 -16 -42 -28 -19
-36 -62 -87 -74 -87 -5 0 -18 6 -27 13 -17 11 -15 16 17 61 26 37 33 56 29 76
-5 27 -3 28 51 34 31 4 58 12 61 17 4 5 16 9 27 9 20 0 20 -1 5 -18z m1301
-464 c23 -20 6 -18 -34 3 -35 19 -36 20 -9 14 16 -4 36 -11 43 -17z m-63 -428
c-29 -13 -104 -13 -85 0 8 5 35 9 60 9 34 0 40 -2 25 -9z m-1266 -894 c10 -12
8 -17 -8 -25 -11 -6 -31 -11 -44 -11 -20 0 -24 4 -20 19 5 18 19 27 49 30 6 0
17 -5 23 -13z"/>
<path d="M5585 9990 c28 -12 45 -12 45 0 0 6 -15 10 -32 9 -28 0 -30 -2 -13
-9z"/>
<path d="M5680 9986 c0 -7 7 -19 15 -26 8 -6 13 -22 12 -33 -3 -30 53 -57 116
-57 40 0 47 3 45 18 -2 13 3 16 22 14 23 -2 27 3 37 40 6 23 9 46 7 50 -3 5
-61 8 -130 8 -99 0 -124 -3 -124 -14z"/>
<path d="M5764 9778 c8 -42 13 -45 31 -22 23 31 19 54 -11 54 -24 0 -26 -3
-20 -32z"/>
<path d="M5888 9803 c6 -2 18 -2 25 0 6 3 1 5 -13 5 -14 0 -19 -2 -12 -5z"/>
<path d="M6016 9759 c-3 -17 -6 -35 -6 -40 0 -14 34 -11 54 4 18 13 18 15 1
40 -23 36 -41 34 -49 -4z"/>
<path d="M5832 9758 c7 -20 45 -21 70 -4 22 15 21 16 -26 16 -34 0 -46 -4 -44
-12z"/>
<path d="M5598 9638 c9 -9 15 -9 24 0 9 9 7 12 -12 12 -19 0 -21 -3 -12 -12z"/>
<path d="M3995 9541 c-54 -6 -73 -15 -176 -83 -118 -78 -129 -91 -129 -150 0
-25 3 -28 35 -28 19 0 35 -4 35 -8 0 -5 -13 -7 -29 -4 -21 3 -33 -2 -44 -19
-15 -21 -15 -23 8 -35 35 -18 99 -6 127 23 13 14 21 27 18 31 -3 3 14 10 37
15 32 6 56 22 103 68 33 33 60 63 60 66 0 3 9 17 19 32 19 27 23 94 5 96 -5 1
-36 -1 -69 -4z"/>
<path d="M5883 9433 c-13 -74 -11 -83 19 -83 14 0 18 5 14 16 -3 9 -6 42 -6
75 0 32 -4 59 -8 59 -4 0 -13 -30 -19 -67z"/>
<path d="M3340 9480 c0 -5 5 -10 11 -10 5 0 7 5 4 10 -3 6 -8 10 -11 10 -2 0
-4 -4 -4 -10z"/>
<path d="M3450 9453 c-8 -4 -27 -20 -42 -36 -31 -32 -36 -81 -18 -149 13 -45
-1 -78 -32 -78 -20 0 -21 -4 -15 -71 7 -84 21 -108 47 -84 15 14 22 14 38 4
19 -12 19 -13 2 -31 -11 -12 -23 -16 -35 -12 -12 5 -16 4 -12 -3 4 -6 3 -22
-2 -36 -12 -32 -3 -67 17 -67 8 0 12 3 9 7 -9 8 24 32 45 33 21 0 33 -39 24
-80 l-5 -30 52 0 52 0 -30 -20 c-16 -11 -38 -20 -47 -20 -10 0 -18 -5 -18 -10
0 -6 8 -13 18 -16 9 -3 25 -10 34 -15 10 -5 25 -9 33 -9 8 0 15 -5 15 -11 0
-6 14 -9 32 -7 26 2 32 8 35 31 2 15 -2 37 -9 50 -7 12 -11 26 -10 30 6 20 3
205 -3 238 -7 36 -8 37 -46 32 -25 -4 -39 -2 -39 6 0 6 6 11 14 11 8 0 28 8
45 18 26 14 31 21 26 42 -4 14 -16 32 -28 42 -17 13 -19 19 -9 31 10 11 9 17
-2 27 -9 6 -20 9 -26 5 -13 -8 -13 8 -1 21 12 12 -61 158 -80 161 -8 1 -21 -1
-29 -4z m11 -303 c19 -11 27 -69 13 -105 -12 -30 -23 6 -17 52 5 35 3 43 -10
43 -9 0 -19 5 -22 10 -8 13 11 13 36 0z m35 -157 c-10 -10 -19 5 -10 18 6 11
8 11 12 0 2 -7 1 -15 -2 -18z"/>
<path d="M3605 9350 c-4 -6 3 -10 14 -10 25 0 27 6 6 13 -8 4 -17 2 -20 -3z"/>
<path d="M3630 9295 c0 -5 5 -17 10 -25 5 -8 10 -10 10 -5 0 6 -5 17 -10 25
-5 8 -10 11 -10 5z"/>
<path d="M5500 9274 c0 -8 5 -12 10 -9 6 4 8 11 5 16 -9 14 -15 11 -15 -7z"/>
<path d="M3718 9003 c7 -3 16 -2 19 1 4 3 -2 6 -13 5 -11 0 -14 -3 -6 -6z"/>
<path d="M3409 8656 c16 -19 44 -21 39 -3 -3 6 -15 14 -28 15 -21 3 -22 2 -11
-12z"/>
<path d="M3831 8651 c-14 -26 -14 -58 0 -67 15 -9 29 14 29 48 0 34 -16 44
-29 19z"/>
<path d="M3410 8581 c0 -6 5 -13 10 -16 6 -3 10 1 10 9 0 9 -4 16 -10 16 -5 0
-10 -4 -10 -9z"/>
<path d="M3923 8416 c-25 -26 -30 -42 -11 -30 7 4 31 7 55 5 37 -2 43 0 43 17
0 38 -54 43 -87 8z"/>
<path d="M6220 8405 c0 -27 9 -32 27 -14 14 14 6 39 -13 39 -8 0 -14 -10 -14
-25z"/>
<path d="M6275 8335 c-34 -27 -27 -31 27 -12 29 10 35 16 26 25 -16 16 -19 16
-53 -13z"/>
<path d="M5200 7960 c0 -5 5 -10 11 -10 5 0 7 5 4 10 -3 6 -8 10 -11 10 -2 0
-4 -4 -4 -10z"/>
<path d="M5275 7730 c-9 -15 4 -30 26 -30 24 0 24 12 -1 27 -12 8 -21 9 -25 3z"/>
<path d="M6157 7492 c-21 -22 -21 -32 -4 -32 14 0 47 31 47 43 0 14 -27 7 -43
-11z"/>
<path d="M3155 7410 c-8 -12 20 -24 35 -15 5 3 10 10 10 16 0 12 -37 12 -45
-1z"/>
<path d="M3047 7375 c-33 -29 -40 -30 -57 -10 -7 8 -19 15 -26 15 -20 0 -17
-26 4 -34 39 -15 71 -38 77 -56 7 -22 20 -26 30 -10 4 7 16 1 30 -15 27 -28
71 -35 61 -10 -4 11 3 17 25 22 17 3 33 12 36 20 6 14 -58 83 -76 83 -15 0
-23 -18 -11 -25 12 -7 14 -35 2 -35 -4 0 -13 14 -19 30 -6 17 -7 28 -2 24 5
-3 9 2 9 10 0 25 -51 19 -83 -9z"/>
<path d="M2950 7277 c0 -23 39 -52 51 -40 8 8 5 17 -10 32 -24 24 -41 27 -41
8z"/>
<path d="M3183 7173 c25 -7 15 -29 -11 -25 -18 3 -22 -2 -22 -22 0 -16 6 -26
14 -26 8 0 16 -10 18 -21 3 -24 33 -48 44 -36 4 4 2 17 -3 30 -17 34 -22 66
-12 73 20 12 8 34 -18 33 -18 -1 -22 -3 -10 -6z"/>
<path d="M3800 7161 c0 -15 16 -22 35 -15 13 5 14 8 3 15 -18 12 -38 11 -38 0z"/>
<path d="M5418 6723 c7 -3 16 -2 19 1 4 3 -2 6 -13 5 -11 0 -14 -3 -6 -6z"/>
<path d="M5536 5933 c-11 -11 -6 -23 9 -23 8 0 15 4 15 9 0 13 -16 22 -24 14z"/>
<path d="M5400 5921 c0 -14 80 -74 88 -67 4 4 -3 15 -14 24 -12 9 -24 25 -27
35 -6 17 -47 25 -47 8z"/>
<path d="M6046 4942 c-8 -26 2 -48 15 -35 6 6 6 19 1 34 l-9 24 -7 -23z"/>
<path d="M5220 4408 c-39 -53 -38 -92 2 -96 43 -5 78 36 78 93 0 41 -2 45 -25
45 -18 0 -34 -12 -55 -42z"/>
<path d="M5732 4368 c7 -19 38 -22 38 -4 0 10 -9 16 -21 16 -12 0 -19 -5 -17
-12z"/>
<path d="M3605 4360 c-3 -5 1 -10 9 -10 8 0 18 5 21 10 3 6 -1 10 -9 10 -8 0
-18 -4 -21 -10z"/>
<path d="M5730 4280 c0 -11 7 -20 15 -20 8 0 15 9 15 20 0 11 -7 20 -15 20 -8
0 -15 -9 -15 -20z"/>
<path d="M4305 4269 c-25 -12 -58 -18 -87 -17 -26 1 -50 -1 -53 -4 -3 -3 8
-17 24 -31 54 -45 79 -156 41 -177 -38 -20 -20 -29 48 -24 51 5 71 11 82 26 8
11 34 42 58 69 23 27 42 54 42 60 0 9 -74 96 -95 111 -13 10 -13 10 -60 -13z"/>
<path d="M5042 4252 c-8 -6 -14 -38 -17 -88 -2 -43 -7 -87 -10 -96 -9 -22 -34
-31 -52 -17 -10 9 -21 8 -46 -4 -17 -8 -43 -20 -57 -26 -23 -10 -22 -11 15 -8
31 1 39 -1 37 -13 -2 -8 -4 -19 -5 -25 -3 -15 51 -6 105 17 43 18 52 28 79 84
16 35 34 64 38 64 11 0 31 47 31 73 0 13 -5 28 -12 35 -14 14 -86 16 -106 4z"/>
<path d="M5714 4113 c-16 -9 -41 -22 -56 -30 -15 -7 -51 -17 -80 -20 -48 -6
-50 -7 -26 -15 24 -8 26 -12 15 -31 -7 -12 -15 -24 -18 -27 -3 -3 -11 -15 -18
-27 -10 -19 -9 -23 4 -23 8 0 15 4 15 9 0 4 11 7 24 6 32 -4 60 27 51 55 -9
27 19 60 51 60 30 0 72 19 78 36 8 21 -8 24 -40 7z"/>
<path d="M5690 4035 l-35 -13 28 -7 c30 -8 81 11 71 27 -7 11 -22 9 -64 -7z"/>
<path d="M5709 3979 c-8 -5 -24 -9 -36 -9 -39 0 -26 -27 15 -32 47 -6 62 -1
62 22 0 21 -21 32 -41 19z"/>
<path d="M5417 3974 c-11 -11 3 -24 18 -18 8 4 12 10 9 15 -6 11 -18 12 -27 3z"/>
<path d="M4680 3869 c0 -5 5 -7 10 -4 6 3 10 8 10 11 0 2 -4 4 -10 4 -5 0 -10
-5 -10 -11z"/>
<path d="M5105 3850 c-3 -5 -1 -10 4 -10 6 0 11 5 11 10 0 6 -2 10 -4 10 -3 0
-8 -4 -11 -10z"/>
<path d="M4850 3830 c0 -13 7 -20 20 -20 23 0 26 10 8 28 -18 18 -28 15 -28
-8z"/>
<path d="M4615 3570 c-8 -26 11 -50 40 -50 26 0 36 18 28 49 -7 29 -59 29 -68
1z"/>
</g>
</svg>
